<?xml version="1.0" encoding="UTF-8" standalone="yes"?>
<svg xmlns="http://www.w3.org/2000/svg" width="610" height="960.6299" viewBox="0 0 610 960.6299">
  <path d="M 216.148438 777.152344 C 159.777344 777.152344 115.269531 760.65625 82.617188 727.671875 C 49.945312 694.703125 33.621094 650.023438 33.621094 593.675781 L 33.621094 538.90625 C 33.621094 487.675781 48.027344 446.683594 76.84375 415.949219 C 105.664062 385.214844 144.421875 368.554688 193.082031 366.003906 L 166.183594 331.414062 C 131.613281 285.957031 114.320312 245.597656 114.320312 210.375 C 114.320312 164.917969 129.675781 128.078125 160.429688 99.910156 C 191.164062 71.726562 231.1875 57.632812 280.5 57.632812 C 315.722656 57.632812 346.625 65.324219 373.207031 80.699219 C 399.792969 96.058594 420.605469 117.351562 435.644531 144.570312 C 450.6875 171.785156 458.226562 203.65625 458.226562 240.160156 L 373.691406 240.160156 C 373.691406 208.140625 365.203125 182.042969 348.226562 161.863281 C 331.25 141.683594 308.6875 131.613281 280.5 131.613281 C 256.804688 131.613281 237.445312 138.964844 222.382812 153.710938 C 207.34375 168.433594 199.800781 187.964844 199.800781 212.292969 C 199.800781 237.277344 209.09375 261.605469 227.671875 285.304688 L 415 527.382812 L 502.402344 417.867188 L 598.476562 417.867188 L 461.113281 586.953125 L 600.394531 768.511719 L 505.285156 768.511719 L 412.113281 645.539062 L 370.804688 697.417969 C 349.027344 724.320312 324.84375 744.332031 298.28125 757.457031 C 271.695312 770.578125 244.3125 777.152344 216.148438 777.152344 Z M 221.898438 699.335938 C 258.40625 699.335938 289.472656 683.011719 315.089844 650.339844 L 365.035156 586.953125 L 244.964844 433.242188 L 216.148438 433.242188 C 186.046875 433.242188 162.179688 442.683594 144.570312 461.578125 C 126.960938 480.472656 118.152344 506.253906 118.152344 538.90625 L 118.152344 593.675781 C 118.152344 626.324219 127.609375 652.109375 146.488281 671.003906 C 165.382812 689.898438 190.53125 699.335938 221.898438 699.335938 Z M 221.898438 699.335938 "/>
</svg>