<?xml version="1.0" encoding="UTF-8" standalone="yes"?>
<svg xmlns="http://www.w3.org/2000/svg" width="610" height="1000" viewBox="0 0 610 1000">
  <path d="M 310.75 809.375 C 264.117188 809.375 222.992188 799.535156 187.351562 779.890625 C 151.710938 760.230469 123.902344 732.925781 103.925781 697.953125 C 83.929688 662.984375 73.941406 622.507812 73.941406 576.542969 C 73.941406 544.570312 79.929688 511.773438 91.925781 478.125 C 103.925781 444.492188 120.238281 409.335938 140.886719 372.710938 L 309.765625 69.941406 L 409.671875 69.941406 L 229.816406 382.699219 L 232.8125 384.691406 C 241.480469 373.382812 254.464844 364.714844 271.78125 358.722656 C 289.101562 352.714844 308.089844 349.722656 328.738281 349.722656 C 372.042969 349.722656 409.839844 359.226562 442.148438 378.199219 C 474.460938 397.191406 499.777344 423.34375 518.097656 456.640625 C 536.421875 489.957031 545.574219 528.589844 545.574219 572.542969 C 545.574219 619.179688 535.585938 660.324219 515.605469 695.964844 C 495.609375 731.601562 468.136719 759.414062 433.164062 779.390625 C 398.195312 799.367188 357.382812 809.375 310.75 809.375 Z M 309.765625 729.425781 C 353.050781 729.425781 388.1875 715.105469 415.179688 686.457031 C 442.148438 657.8125 455.636719 620.515625 455.636719 574.554688 C 455.636719 528.589844 442.148438 491.277344 415.179688 462.628906 C 388.1875 434.003906 353.050781 419.679688 309.765625 419.679688 C 266.460938 419.679688 231.324219 434.003906 204.335938 462.628906 C 177.363281 491.277344 163.875 528.589844 163.875 574.554688 C 163.875 620.515625 177.363281 657.8125 204.335938 686.457031 C 231.324219 715.105469 266.460938 729.425781 309.765625 729.425781 Z M 309.765625 729.425781 "/>
</svg>