<?xml version="1.0" encoding="UTF-8" standalone="yes"?>
<svg xmlns="http://www.w3.org/2000/svg" width="610" height="1000" viewBox="0 0 610 1000">
  <path d="M 81.9375 799.367188 L 81.9375 69.941406 L 214.824219 69.941406 L 307.757812 385.695312 L 404.6875 69.941406 L 537.574219 69.941406 L 537.574219 799.367188 L 450.652344 799.367188 L 450.652344 454.648438 C 450.652344 422.003906 451.152344 384.523438 452.140625 342.226562 C 453.144531 299.925781 454.648438 257.125 456.640625 213.839844 C 458.648438 170.535156 460.976562 131.566406 463.632812 96.929688 L 345.722656 473.625 L 267.78125 473.625 L 154.875 105.914062 C 160.210938 155.207031 163.875 209.171875 165.867188 267.78125 C 167.875 326.414062 168.863281 388.691406 168.863281 454.648438 L 168.863281 799.367188 Z M 81.9375 799.367188 "/>
</svg>